<svg width="680" viewBox="0 0 680 462" xmlns="http://www.w3.org/2000/svg" font-family="Arial, Helvetica, sans-serif">
    <defs>
        <marker id="arrow" viewBox="0 0 10 10" refX="8" refY="5" markerWidth="6" markerHeight="6" orient="auto-start-reverse">
            <path d="M2 1L8 5L2 9" fill="none" stroke="context-stroke" stroke-width="1.5" stroke-linecap="round" stroke-linejoin="round"/>
        </marker>
    </defs>
    <rect width="680" height="462" fill="#ffffff"/>

    <rect x="130" y="20" width="240" height="44" rx="8" fill="#F1EFE8" stroke="#5F5E5A" stroke-width="0.5"/>
    <text x="250" y="43" text-anchor="middle" font-size="14" font-weight="500" fill="#2C2C2A">Incoming request</text>

    <line x1="250" y1="64" x2="250" y2="80" stroke="#888780" stroke-width="1.5" marker-end="url(#arrow)"/>

    <rect x="130" y="82" width="240" height="56" rx="8" fill="#FAEEDA" stroke="#BA7517" stroke-width="0.5"/>
    <text x="250" y="104" text-anchor="middle" font-size="14" font-weight="500" fill="#633806">Connection limit</text>
    <text x="250" y="123" text-anchor="middle" font-size="12" fill="#854F0B">max 50/IP · Slowloris</text>

    <line x1="370" y1="110" x2="396" y2="110" stroke="#A32D2D" stroke-width="1.5" marker-end="url(#arrow)"/>
    <rect x="398" y="88" width="130" height="44" rx="6" fill="#FCEBEB" stroke="#A32D2D" stroke-width="0.5"/>
    <text x="463" y="111" text-anchor="middle" font-size="14" font-weight="500" fill="#791F1F">conn drop</text>

    <line x1="250" y1="138" x2="250" y2="156" stroke="#888780" stroke-width="1.5" marker-end="url(#arrow)"/>

    <rect x="130" y="158" width="240" height="56" rx="8" fill="#FAEEDA" stroke="#BA7517" stroke-width="0.5"/>
    <text x="250" y="180" text-anchor="middle" font-size="14" font-weight="500" fill="#633806">Rate limiting</text>
    <text x="250" y="199" text-anchor="middle" font-size="12" fill="#854F0B">limit_req · 10r/s · burst=20</text>

    <line x1="370" y1="186" x2="396" y2="186" stroke="#A32D2D" stroke-width="1.5" marker-end="url(#arrow)"/>
    <rect x="398" y="164" width="130" height="44" rx="6" fill="#FCEBEB" stroke="#A32D2D" stroke-width="0.5"/>
    <text x="463" y="187" text-anchor="middle" font-size="14" font-weight="500" fill="#791F1F">429 rate limit</text>

    <line x1="250" y1="214" x2="250" y2="232" stroke="#888780" stroke-width="1.5" marker-end="url(#arrow)"/>

    <rect x="130" y="234" width="240" height="56" rx="8" fill="#FAEEDA" stroke="#BA7517" stroke-width="0.5"/>
    <text x="250" y="256" text-anchor="middle" font-size="14" font-weight="500" fill="#633806">Scanner / bot filter</text>
    <text x="250" y="275" text-anchor="middle" font-size="12" fill="#854F0B">bad UA · probe paths</text>

    <line x1="370" y1="262" x2="396" y2="262" stroke="#A32D2D" stroke-width="1.5" marker-end="url(#arrow)"/>
    <rect x="398" y="240" width="130" height="44" rx="6" fill="#FCEBEB" stroke="#A32D2D" stroke-width="0.5"/>
    <text x="463" y="263" text-anchor="middle" font-size="14" font-weight="500" fill="#791F1F">403 / 444</text>

    <line x1="250" y1="290" x2="250" y2="308" stroke="#888780" stroke-width="1.5" marker-end="url(#arrow)"/>

    <rect x="130" y="310" width="240" height="56" rx="8" fill="#FAEEDA" stroke="#BA7517" stroke-width="0.5"/>
    <text x="250" y="332" text-anchor="middle" font-size="14" font-weight="500" fill="#633806">Timeout hardening</text>
    <text x="250" y="351" text-anchor="middle" font-size="12" fill="#854F0B">10s header · 15s body · drop</text>

    <line x1="370" y1="338" x2="396" y2="338" stroke="#A32D2D" stroke-width="1.5" marker-end="url(#arrow)"/>
    <rect x="398" y="316" width="130" height="44" rx="6" fill="#FCEBEB" stroke="#A32D2D" stroke-width="0.5"/>
    <text x="463" y="339" text-anchor="middle" font-size="14" font-weight="500" fill="#791F1F">timeout close</text>

    <line x1="250" y1="366" x2="250" y2="384" stroke="#888780" stroke-width="1.5" marker-end="url(#arrow)"/>

    <rect x="130" y="386" width="240" height="44" rx="8" fill="#E1F5EE" stroke="#0F6E56" stroke-width="0.5"/>
    <text x="250" y="409" text-anchor="middle" font-size="14" font-weight="500" fill="#085041">Pass to next phase</text>
</svg>