<svg width="680" viewBox="0 0 680 422" xmlns="http://www.w3.org/2000/svg" font-family="Arial, Helvetica, sans-serif">
    <defs>
        <marker id="arrow" viewBox="0 0 10 10" refX="8" refY="5" markerWidth="6" markerHeight="6" orient="auto-start-reverse">
            <path d="M2 1L8 5L2 9" fill="none" stroke="context-stroke" stroke-width="1.5" stroke-linecap="round" stroke-linejoin="round"/>
        </marker>
    </defs>
    <rect width="680" height="422" fill="#ffffff"/>

    <rect x="190" y="20" width="300" height="44" rx="8" fill="#F1EFE8" stroke="#5F5E5A" stroke-width="0.5"/>
    <text x="340" y="43" text-anchor="middle" font-size="14" font-weight="500" fill="#2C2C2A">Incoming request</text>

    <line x1="340" y1="64" x2="340" y2="80" stroke="#888780" stroke-width="1.5" marker-end="url(#arrow)"/>

    <rect x="152" y="78" width="376" height="174" rx="10" fill="none" stroke="#B4B2A9" stroke-width="1" stroke-dasharray="5 3"/>
    <text x="165" y="92" font-size="12" fill="#5F5E5A">WAF unit (lua-resty-waf / ModSecurity)</text>

    <rect x="178" y="96" width="324" height="56" rx="8" fill="#FAECE7" stroke="#993C1D" stroke-width="0.5"/>
    <text x="340" y="118" text-anchor="middle" font-size="14" font-weight="500" fill="#4A1B0C">Signature inspection</text>
    <text x="340" y="137" text-anchor="middle" font-size="12" fill="#993C1D">SQLi · XSS · path traversal · bad UA</text>

    <line x1="340" y1="152" x2="340" y2="168" stroke="#888780" stroke-width="1.5" marker-end="url(#arrow)"/>

    <rect x="178" y="170" width="324" height="56" rx="8" fill="#FAEEDA" stroke="#BA7517" stroke-width="0.5"/>
    <text x="340" y="192" text-anchor="middle" font-size="14" font-weight="500" fill="#633806">Score threshold check</text>
    <text x="340" y="211" text-anchor="middle" font-size="12" fill="#854F0B">anomaly score > 5 → block</text>

    <line x1="502" y1="198" x2="532" y2="198" stroke="#A32D2D" stroke-width="1.5" marker-end="url(#arrow)"/>
    <rect x="534" y="176" width="108" height="44" rx="6" fill="#FCEBEB" stroke="#A32D2D" stroke-width="0.5"/>
    <text x="588" y="193" text-anchor="middle" font-size="14" font-weight="500" fill="#791F1F">403 blocked</text>
    <text x="588" y="209" text-anchor="middle" font-size="12" fill="#A32D2D">ACTIVE mode</text>

    <line x1="340" y1="252" x2="340" y2="270" stroke="#888780" stroke-width="1.5" marker-end="url(#arrow)"/>

    <rect x="190" y="272" width="300" height="56" rx="8" fill="#E1F5EE" stroke="#0F6E56" stroke-width="0.5"/>
    <text x="340" y="294" text-anchor="middle" font-size="14" font-weight="500" fill="#085041">Auth unmask</text>
    <text x="340" y="313" text-anchor="middle" font-size="12" fill="#0F6E56">unmask_token() · inject cookies</text>

    <line x1="340" y1="328" x2="340" y2="346" stroke="#888780" stroke-width="1.5" marker-end="url(#arrow)"/>

    <rect x="190" y="348" width="300" height="44" rx="8" fill="#E6F1FB" stroke="#185FA5" stroke-width="0.5"/>
    <text x="340" y="371" text-anchor="middle" font-size="14" font-weight="500" fill="#042C53">Proxy to backend</text>

    <rect x="534" y="310" width="108" height="56" rx="6" fill="#F1EFE8" stroke="#B4B2A9" stroke-width="0.5"/>
    <text x="588" y="330" text-anchor="middle" font-size="12" fill="#444441">SIMULATE</text>
    <text x="588" y="346" text-anchor="middle" font-size="12" fill="#444441">log only</text>
    <text x="588" y="358" text-anchor="middle" font-size="12" fill="#444441">no block</text>
</svg>