<svg width="680" viewBox="0 0 680 557" xmlns="http://www.w3.org/2000/svg" font-family="Arial, Helvetica, sans-serif">
    <defs>
        <marker id="arrow" viewBox="0 0 10 10" refX="8" refY="5" markerWidth="6" markerHeight="6" orient="auto-start-reverse">
            <path d="M2 1L8 5L2 9" fill="none" stroke="context-stroke" stroke-width="1.5" stroke-linecap="round" stroke-linejoin="round"/>
        </marker>
    </defs>
    <rect width="680" height="557" fill="#ffffff"/>

    <rect x="88" y="14" width="312" height="513" rx="16" fill="#f7f6f3" stroke="#B4B2A9" stroke-width="0.5"/>
    <text x="244" y="37" text-anchor="middle" font-size="14" font-weight="500" fill="#2C2C2A">OpenResty proxy</text>

    <rect x="103" y="56" width="284" height="50" rx="6" fill="#FCEBEB" stroke="#A32D2D" stroke-width="0.5"/>
    <text x="245" y="75" text-anchor="middle" font-size="14" font-weight="500" fill="#791F1F">SSL/TLS termination</text>
    <text x="245" y="94" text-anchor="middle" font-size="12" fill="#A32D2D">redirect · IP block 444</text>

    <rect x="103" y="114" width="284" height="50" rx="6" fill="#F1EFE8" stroke="#5F5E5A" stroke-width="0.5"/>
    <text x="245" y="133" text-anchor="middle" font-size="14" font-weight="500" fill="#2C2C2A">Security headers + gzip</text>
    <text x="245" y="152" text-anchor="middle" font-size="12" fill="#5F5E5A">HSTS · X-Frame · gzip</text>

    <rect x="103" y="172" width="284" height="50" rx="6" fill="#FAEEDA" stroke="#BA7517" stroke-width="0.5"/>
    <text x="245" y="191" text-anchor="middle" font-size="14" font-weight="500" fill="#633806">Anti-DDoS hardening</text>
    <text x="245" y="210" text-anchor="middle" font-size="12" fill="#854F0B">conn limit · rate · timeouts · bots</text>

    <rect x="103" y="230" width="284" height="50" rx="6" fill="#FAEEDA" stroke="#BA7517" stroke-width="0.5"/>
    <text x="245" y="249" text-anchor="middle" font-size="14" font-weight="500" fill="#633806">Rate limiting</text>
    <text x="245" y="268" text-anchor="middle" font-size="12" fill="#854F0B">limit_req · 10r/s zones</text>

    <rect x="103" y="288" width="284" height="50" rx="6" fill="#FAECE7" stroke="#993C1D" stroke-width="0.5"/>
    <text x="245" y="307" text-anchor="middle" font-size="14" font-weight="500" fill="#4A1B0C">WAF inspection</text>
    <text x="245" y="326" text-anchor="middle" font-size="12" fill="#993C1D">SQLi · XSS · traversal</text>

    <rect x="103" y="346" width="284" height="50" rx="6" fill="#E1F5EE" stroke="#0F6E56" stroke-width="0.5"/>
    <text x="245" y="365" text-anchor="middle" font-size="14" font-weight="500" fill="#085041">Auth cookie unmask</text>
    <text x="245" y="384" text-anchor="middle" font-size="12" fill="#0F6E56">proxylogin · inject cookies</text>

    <rect x="103" y="404" width="284" height="50" rx="6" fill="#EEEDFE" stroke="#534AB7" stroke-width="0.5"/>
    <text x="245" y="423" text-anchor="middle" font-size="14" font-weight="500" fill="#26215C">Path-based routing</text>
    <text x="245" y="442" text-anchor="middle" font-size="12" fill="#534AB7">6 route groups → 5 backends</text>

    <rect x="103" y="462" width="284" height="50" rx="6" fill="#E6F1FB" stroke="#185FA5" stroke-width="0.5"/>
    <text x="245" y="481" text-anchor="middle" font-size="14" font-weight="500" fill="#042C53">Protocol handling</text>
    <text x="245" y="500" text-anchor="middle" font-size="12" fill="#185FA5">SSE · WebSocket · SPA</text>

    <rect x="103" y="172" width="284" height="50" rx="6" fill="none" stroke="#BA7517" stroke-width="1.5" stroke-dasharray="4 2"/>
    <rect x="103" y="288" width="284" height="50" rx="6" fill="none" stroke="#993C1D" stroke-width="1.5" stroke-dasharray="4 2"/>

    <rect x="10" y="291" width="64" height="44" rx="8" fill="#F1EFE8" stroke="#5F5E5A" stroke-width="0.5"/>
    <text x="42" y="314" text-anchor="middle" font-size="14" font-weight="500" fill="#2C2C2A">Client</text>
    <line x1="74" y1="313" x2="86" y2="313" stroke="#888780" stroke-width="1.5" marker-end="url(#arrow)"/>

    <line x1="400" y1="429" x2="430" y2="429" stroke="#888780" stroke-width="1.5" marker-end="url(#arrow)"/>

    <line x1="432" y1="72" x2="432" y2="510" stroke="#888780" stroke-width="1" opacity="0.5"/>
    <circle cx="432" cy="429" r="3"   fill="#888780" opacity="0.7"/>
    <circle cx="432" cy="93"  r="2.5" fill="#888780" opacity="0.5"/>
    <circle cx="432" cy="186" r="2.5" fill="#888780" opacity="0.5"/>
    <circle cx="432" cy="280" r="2.5" fill="#888780" opacity="0.5"/>
    <circle cx="432" cy="374" r="2.5" fill="#888780" opacity="0.5"/>
    <circle cx="432" cy="468" r="2.5" fill="#888780" opacity="0.5"/>

    <line x1="432" y1="93"  x2="448" y2="93"  stroke="#888780" stroke-width="1.5" marker-end="url(#arrow)"/>
    <line x1="432" y1="186" x2="448" y2="186" stroke="#888780" stroke-width="1.5" marker-end="url(#arrow)"/>
    <line x1="432" y1="280" x2="448" y2="280" stroke="#888780" stroke-width="1.5" marker-end="url(#arrow)"/>
    <line x1="432" y1="374" x2="448" y2="374" stroke="#888780" stroke-width="1.5" marker-end="url(#arrow)"/>
    <line x1="432" y1="468" x2="448" y2="468" stroke="#888780" stroke-width="1.5" marker-end="url(#arrow)"/>

    <rect x="450" y="72"  width="188" height="42" rx="6" fill="#E6F1FB" stroke="#185FA5" stroke-width="0.5"/>
    <text x="544" y="88"  text-anchor="middle" font-size="14" font-weight="500" fill="#042C53">web-ui</text>
    <text x="544" y="104" text-anchor="middle" font-size="12" fill="#185FA5">:80 — SPA</text>

    <rect x="450" y="165" width="188" height="42" rx="6" fill="#E1F5EE" stroke="#0F6E56" stroke-width="0.5"/>
    <text x="544" y="181" text-anchor="middle" font-size="14" font-weight="500" fill="#085041">proxylogin</text>
    <text x="544" y="197" text-anchor="middle" font-size="12" fill="#0F6E56">auth · unmask</text>

    <rect x="450" y="259" width="188" height="42" rx="6" fill="#EEEDFE" stroke="#534AB7" stroke-width="0.5"/>
    <text x="544" y="275" text-anchor="middle" font-size="14" font-weight="500" fill="#26215C">chat-ingress</text>
    <text x="544" y="291" text-anchor="middle" font-size="12" fill="#534AB7">:8010 — API · SSE · WS</text>

    <rect x="450" y="353" width="188" height="42" rx="6" fill="#FAECE7" stroke="#993C1D" stroke-width="0.5"/>
    <text x="544" y="369" text-anchor="middle" font-size="14" font-weight="500" fill="#4A1B0C">chat-proc</text>
    <text x="544" y="385" text-anchor="middle" font-size="12" fill="#993C1D">:8020 — integrations</text>

    <rect x="450" y="447" width="188" height="42" rx="6" fill="#FAEEDA" stroke="#BA7517" stroke-width="0.5"/>
    <text x="544" y="463" text-anchor="middle" font-size="14" font-weight="500" fill="#412402">kb</text>
    <text x="544" y="479" text-anchor="middle" font-size="12" fill="#854F0B">:8000 — knowledge base</text>

    <rect x="542" y="518" width="10" height="10" rx="2" fill="none" stroke="#BA7517" stroke-width="1.5" stroke-dasharray="3 2"/>
    <text x="558" y="527" font-size="11" fill="#854F0B">anti-DDoS layer</text>
    <rect x="542" y="536" width="10" height="10" rx="2" fill="none" stroke="#993C1D" stroke-width="1.5" stroke-dasharray="3 2"/>
    <text x="558" y="545" font-size="11" fill="#993C1D">WAF layer</text>
</svg>