<svg width="980" viewBox="0 0 980 760" xmlns="http://www.w3.org/2000/svg" font-family="Arial, Helvetica, sans-serif">
  <defs>
    <marker id="arrow" viewBox="0 0 10 10" refX="8" refY="5" markerWidth="7" markerHeight="7" orient="auto-start-reverse">
      <path d="M2 1L8 5L2 9" fill="none" stroke="context-stroke" stroke-width="1.5" stroke-linecap="round" stroke-linejoin="round"/>
    </marker>
    <style>
      .title { font-size: 20px; font-weight: 700; fill: #111827; }
      .subtitle { font-size: 12px; fill: #4b5563; }
      .section { font-size: 12px; font-weight: 700; fill: #374151; }
      .h { font-size: 14px; font-weight: 700; fill: #111827; }
      .b { font-size: 12px; fill: #374151; }
      .small { font-size: 11px; fill: #4b5563; }
      .tiny { font-size: 10px; fill: #6b7280; }
      .box { rx: 8; stroke-width: 1.2; }
      .dash { stroke-dasharray: 6 4; }
      .arrow { stroke: #4b5563; stroke-width: 1.4; fill: none; marker-end: url(#arrow); }
      .arrow2 { stroke: #6b7280; stroke-width: 1.1; stroke-dasharray: 5 4; fill: none; marker-end: url(#arrow); }
    </style>
  </defs>

  <rect width="980" height="760" fill="#ffffff"/>
  <text x="490" y="30" text-anchor="middle" class="title">Generic ECS Deployment Topology</text>
  <text x="490" y="50" text-anchor="middle" class="subtitle">External traffic terminates at the edge and ALB, then all application traffic enters through web-proxy.</text>

  <!-- Edge -->
  <rect x="24" y="78" width="932" height="84" rx="14" fill="#eff6ff" stroke="#2563eb" stroke-width="1.2"/>
  <text x="38" y="98" class="section">edge and public entry</text>

  <rect x="46" y="112" width="100" height="36" class="box" fill="#dbeafe" stroke="#1d4ed8"/>
  <text x="96" y="134" text-anchor="middle" class="h">Browser</text>

  <rect x="190" y="106" width="150" height="48" class="box dash" fill="#eff6ff" stroke="#2563eb"/>
  <text x="265" y="124" text-anchor="middle" class="h">DNS / CDN / WAF</text>
  <text x="265" y="142" text-anchor="middle" class="small">optional edge layer</text>

  <rect x="390" y="106" width="170" height="48" class="box" fill="#e0e7ff" stroke="#4f46e5"/>
  <text x="475" y="124" text-anchor="middle" class="h">Application LB</text>
  <text x="475" y="142" text-anchor="middle" class="small">HTTPS and HTTP listeners</text>

  <rect x="612" y="106" width="140" height="48" class="box" fill="#f5f3ff" stroke="#7c3aed"/>
  <text x="682" y="124" text-anchor="middle" class="h">ACM</text>
  <text x="682" y="142" text-anchor="middle" class="small">viewer and ALB TLS</text>

  <rect x="794" y="106" width="130" height="48" class="box" fill="#fef3c7" stroke="#d97706"/>
  <text x="859" y="124" text-anchor="middle" class="h">ECR</text>
  <text x="859" y="142" text-anchor="middle" class="small">container images</text>

  <path d="M146 130H190" class="arrow"/>
  <path d="M340 130H390" class="arrow"/>
  <path d="M752 130H794" class="arrow2"/>

  <!-- VPC -->
  <rect x="24" y="188" width="932" height="374" rx="16" fill="#f8fafc" stroke="#94a3b8" stroke-width="1.2"/>
  <text x="38" y="210" class="section">VPC with public and private subnets</text>
  <text x="38" y="228" class="tiny">ALB is public. ECS services, databases, cache, and EFS stay in private subnets. Cloud Map provides private service discovery.</text>

  <rect x="54" y="248" width="872" height="280" rx="12" fill="#f0fdf4" stroke="#16a34a" stroke-width="1.2"/>
  <text x="70" y="270" class="section">ECS cluster</text>

  <rect x="78" y="290" width="160" height="64" class="box" fill="#1f2937" stroke="#111827"/>
  <text x="158" y="312" text-anchor="middle" font-size="14" font-weight="700" fill="#ffffff">web-proxy</text>
  <text x="158" y="332" text-anchor="middle" font-size="12" fill="#d1d5db">Fargate · OpenResty :80</text>
  <text x="158" y="348" text-anchor="middle" font-size="10" fill="#d1d5db">sole ALB target group</text>

  <rect x="288" y="290" width="170" height="64" class="box" fill="#f3e8ff" stroke="#9333ea"/>
  <text x="373" y="312" text-anchor="middle" class="h">web-ui</text>
  <text x="373" y="332" text-anchor="middle" class="small">Fargate · static UI :80</text>
  <text x="373" y="348" text-anchor="middle" class="tiny">runtime config injected</text>

  <rect x="498" y="290" width="170" height="64" class="box" fill="#fef3c7" stroke="#d97706"/>
  <text x="583" y="312" text-anchor="middle" class="h">proxylogin</text>
  <text x="583" y="332" text-anchor="middle" class="small">Fargate · auth :8080</text>
  <text x="583" y="348" text-anchor="middle" class="tiny">OIDC, sessions, unmask</text>

  <rect x="708" y="290" width="170" height="64" class="box" fill="#ecfdf5" stroke="#059669"/>
  <text x="793" y="312" text-anchor="middle" class="h">chat-ingress</text>
  <text x="793" y="332" text-anchor="middle" class="small">Fargate · API/SSE/Socket.IO :8010</text>
  <text x="793" y="348" text-anchor="middle" class="tiny">ClamAV sidecar for uploads</text>

  <rect x="708" y="388" width="170" height="76" class="box" fill="#dbeafe" stroke="#2563eb"/>
  <text x="793" y="410" text-anchor="middle" class="h">chat-proc</text>
  <text x="793" y="430" text-anchor="middle" class="small">Fargate or EC2 capacity provider</text>
  <text x="793" y="446" text-anchor="middle" class="tiny">agent runtime, queue + Data Bus workers</text>
  <text x="793" y="460" text-anchor="middle" class="tiny">holds ECS task protection while busy</text>

  <rect x="498" y="398" width="170" height="56" class="box dash" fill="#f1f5f9" stroke="#64748b"/>
  <text x="583" y="418" text-anchor="middle" class="h">metrics</text>
  <text x="583" y="438" text-anchor="middle" class="small">optional Fargate service</text>

  <rect x="78" y="398" width="380" height="56" class="box dash" fill="#ffffff" stroke="#9ca3af"/>
  <text x="268" y="418" text-anchor="middle" class="h">one-shot setup tasks</text>
  <text x="268" y="438" text-anchor="middle" class="small">database setup · bundle/config init · proxy config init</text>

  <path d="M475 154V188" class="arrow"/>
  <path d="M475 188V244H158V290" class="arrow"/>
  <path d="M238 322H288" class="arrow"/>
  <path d="M238 322C330 370 460 370 498 332" class="arrow"/>
  <path d="M238 322C455 385 650 370 708 332" class="arrow"/>
  <path d="M793 354V388" class="arrow"/>
  <path d="M583 354V398" class="arrow2"/>

  <!-- Exec modes -->
  <rect x="54" y="486" width="824" height="28" rx="8" fill="#ffffff" stroke="#cbd5e1"/>
  <text x="466" y="505" text-anchor="middle" class="small">Execution modes: EC2-backed proc uses host Docker socket and shared EFS workspace; Fargate proc can spawn isolated py-code-exec RunTask.</text>

  <!-- Data services -->
  <rect x="24" y="588" width="932" height="132" rx="16" fill="#fff7ed" stroke="#ea580c" stroke-width="1.2"/>
  <text x="38" y="610" class="section">data, configuration, and observability services</text>

  <rect x="46" y="630" width="130" height="56" class="box dash" fill="#fef9c3" stroke="#ca8a04"/>
  <text x="111" y="650" text-anchor="middle" class="h">Postgres</text>
  <text x="111" y="670" text-anchor="middle" class="small">managed or provided</text>

  <rect x="200" y="630" width="130" height="56" class="box dash" fill="#dcfce7" stroke="#16a34a"/>
  <text x="265" y="650" text-anchor="middle" class="h">Redis</text>
  <text x="265" y="670" text-anchor="middle" class="small">queues, streams, pubsub, sessions</text>

  <rect x="354" y="630" width="144" height="56" class="box" fill="#ecfdf5" stroke="#059669"/>
  <text x="426" y="650" text-anchor="middle" class="h">EFS</text>
  <text x="426" y="668" text-anchor="middle" class="small">config, bundles, exec, debug</text>

  <rect x="522" y="630" width="130" height="56" class="box dash" fill="#ffedd5" stroke="#ea580c"/>
  <text x="587" y="650" text-anchor="middle" class="h">S3</text>
  <text x="587" y="670" text-anchor="middle" class="small">artifacts and storage</text>

  <rect x="676" y="630" width="130" height="56" class="box" fill="#ede9fe" stroke="#7c3aed"/>
  <text x="741" y="650" text-anchor="middle" class="h">Secrets / SSM</text>
  <text x="741" y="670" text-anchor="middle" class="small">keys and config blobs</text>

  <rect x="830" y="630" width="100" height="56" class="box dash" fill="#faf5ff" stroke="#9333ea"/>
  <text x="880" y="650" text-anchor="middle" class="h">Cognito</text>
  <text x="880" y="670" text-anchor="middle" class="small">optional auth</text>

  <path d="M793 464V570H111V630" class="arrow2"/>
  <path d="M793 464V570H265V630" class="arrow"/>
  <path d="M793 464V570H426V630" class="arrow"/>
  <path d="M793 464V570H587V630" class="arrow"/>
  <path d="M793 464V570H741V630" class="arrow"/>
  <path d="M583 354V570H880V630" class="arrow2"/>

  <text x="46" y="744" class="tiny">Solid boxes are expected parts of the topology. Dashed boxes are optional, provided by the environment, or deployment-mode dependent.</text>
</svg>
