<svg xmlns="http://www.w3.org/2000/svg" viewBox="0 0 1100 600" font-family="Inter, ui-sans-serif, system-ui, sans-serif" role="img" aria-labelledby="title desc">
  <title id="title">What KDCube adds around your agent</title>
  <desc id="desc">People, systems, and live events reach your agent or graph — an existing framework such as LangGraph, CrewAI, or the Claude Agent SDK, custom code, or KDCube ReAct. On one side the agent perceives: chat and followups, files and events, memory and context, web and knowledge. On the other side it acts through a trusted broker boundary that keeps identity and policy bound: tools and skills, named services, MCP and APIs, connected accounts, and isolated code with files — generated code receives no ambient network access or credentials. Responses, actions, and artifacts stream back to widgets, APIs, and channels. Beneath it all sits the production foundation: ordered event delivery, identity and grants, persistence, streaming and reconnect, isolation, budgets and accounting, configuration and secrets, recovery and evidence.</desc>
  <defs>
    <linearGradient id="mist" x1="0" y1="0" x2="0" y2="1">
      <stop offset="0%" stop-color="#F1F3F4"/><stop offset="100%" stop-color="#E3E6E8"/>
    </linearGradient>
    <linearGradient id="plinth" x1="0" y1="0" x2="0" y2="1">
      <stop offset="0%" stop-color="#E7EAEC"/><stop offset="100%" stop-color="#DBDFE2"/>
    </linearGradient>
    <radialGradient id="lamp" cx="50%" cy="50%" r="62%">
      <stop offset="0%" stop-color="#FFC978" stop-opacity="0.34"/>
      <stop offset="45%" stop-color="#F0BC2E" stop-opacity="0.12"/>
      <stop offset="100%" stop-color="#F0BC2E" stop-opacity="0"/>
    </radialGradient>
    <linearGradient id="tick" x1="0" y1="0" x2="1" y2="0">
      <stop offset="0" stop-color="#465864"/><stop offset="1" stop-color="#D9A945"/>
    </linearGradient>
  </defs>

  <rect width="1100" height="600" fill="url(#mist)"/>
  <text x="34" y="36" font-size="11" letter-spacing="0.2em" fill="#465864" font-weight="700" font-family="JetBrains Mono, ui-monospace, Menlo, monospace">KDCUBE · THE RUNTIME AROUND YOUR AGENT</text>
  <rect x="34" y="44" width="72" height="2" rx="1" fill="url(#tick)"/>

  <!-- entry: the world reaching the agent -->
  <rect x="400" y="56" width="300" height="40" rx="9" fill="#FFFFFF" stroke="#465864" stroke-opacity="0.4"/>
  <circle cx="418" cy="76" r="3.4" fill="none" stroke="#465864"/><circle cx="418" cy="76" r="1.2" fill="#465864"/>
  <text x="430" y="72" font-size="10.5" font-weight="600" fill="#465864">people · systems · live events</text>
  <text x="430" y="86" font-size="8" fill="#8794A0">chat, APIs, webhooks, channels, schedules</text>
  <path d="M550 96 V126" stroke="#B08428" stroke-width="1.1" fill="none" stroke-dasharray="5 4" stroke-opacity="0.6"/>
  <path d="M550 136l-4 -9h8z" fill="#B08428" fill-opacity="0.8"/>

  <!-- the agent: the strong central signal, warm-lit -->
  <ellipse cx="550" cy="222" rx="290" ry="105" fill="url(#lamp)"/>
  <rect x="360" y="165" width="380" height="115" rx="14" fill="#FFF8E9" stroke="#D9A945" stroke-width="1.3"/>
  <rect x="366" y="171" width="368" height="103" rx="11" fill="none" stroke="#D9A945" stroke-opacity="0.3"/>
  <text x="550" y="198" font-size="19" font-weight="700" fill="#8A6A1C" text-anchor="middle" font-family="Iowan Old Style, Georgia, serif">your agent / graph</text>
  <text x="550" y="222" font-size="10.5" fill="#A08648" text-anchor="middle">LangGraph · CrewAI · Claude Agent SDK · custom code</text>
  <text x="550" y="238" font-size="10.5" fill="#A08648" text-anchor="middle">— or KDCube ReAct —</text>
  <text x="550" y="262" font-size="8.5" fill="#B99B54" text-anchor="middle" font-family="JetBrains Mono, ui-monospace, Menlo, monospace">BUILT FRESH PER TURN · DURABLE STATE IN SHARED STORAGE</text>

  <!-- PERCEIVES wing (into the agent) -->
  <text x="155" y="96" font-size="10" letter-spacing="0.24em" fill="#465864" font-weight="700" text-anchor="middle" font-family="JetBrains Mono, ui-monospace, Menlo, monospace">PERCEIVES</text>
  <g font-size="10.5" font-weight="600">
    <rect x="40" y="112" width="230" height="42" rx="9" fill="#FFFFFF" stroke="#465864" stroke-opacity="0.4"/>
    <circle cx="58" cy="133" r="3.4" fill="none" stroke="#465864"/><circle cx="58" cy="133" r="1.2" fill="#465864"/>
    <text x="70" y="137" fill="#465864">chat + followups</text>
    <rect x="40" y="172" width="230" height="42" rx="9" fill="#FFFFFF" stroke="#465864" stroke-opacity="0.4"/>
    <circle cx="58" cy="193" r="3.4" fill="none" stroke="#465864"/><circle cx="58" cy="193" r="1.2" fill="#465864"/>
    <text x="70" y="197" fill="#465864">files + events</text>
    <rect x="40" y="232" width="230" height="42" rx="9" fill="#FFFFFF" stroke="#465864" stroke-opacity="0.4"/>
    <circle cx="58" cy="253" r="3.4" fill="none" stroke="#465864"/><circle cx="58" cy="253" r="1.2" fill="#465864"/>
    <text x="70" y="257" fill="#465864">memory + context</text>
    <rect x="40" y="292" width="230" height="42" rx="9" fill="#FFFFFF" stroke="#465864" stroke-opacity="0.4"/>
    <circle cx="58" cy="313" r="3.4" fill="none" stroke="#465864"/><circle cx="58" cy="313" r="1.2" fill="#465864"/>
    <text x="70" y="317" fill="#465864">web + knowledge</text>
  </g>
  <g stroke="#B08428" stroke-width="1.1" fill="none" stroke-dasharray="5 4" stroke-opacity="0.6">
    <path d="M270 133 C316 133 330 190 351 195"/>
    <path d="M270 193 C310 193 326 210 351 214"/>
    <path d="M270 253 C310 253 326 236 351 232"/>
    <path d="M270 313 C316 313 330 256 351 250"/>
  </g>
  <g fill="#B08428" fill-opacity="0.8">
    <path d="M360 196l-9 -4v8z"/>
    <path d="M360 215l-9 -4v8z"/>
    <path d="M360 233l-9 -4v8z"/>
    <path d="M360 251l-9 -4v8z"/>
  </g>

  <!-- ACTS wing (out of the agent, across the trusted broker boundary) -->
  <text x="945" y="96" font-size="10" letter-spacing="0.24em" fill="#465864" font-weight="700" text-anchor="middle" font-family="JetBrains Mono, ui-monospace, Menlo, monospace">ACTS</text>
  <path d="M792 104 V356" stroke="#465864" stroke-width="1.1" fill="none" stroke-dasharray="6 5" stroke-opacity="0.5"/>
  <text x="620" y="376" font-size="7.5" letter-spacing="0.1em" fill="#465864" font-family="JetBrains Mono, ui-monospace, Menlo, monospace">TRUSTED BROKER · IDENTITY &amp; POLICY STAY BOUND</text>
  <g font-size="10.5" font-weight="600">
    <rect x="830" y="100" width="230" height="38" rx="9" fill="#FFFFFF" stroke="#465864" stroke-opacity="0.4"/>
    <circle cx="848" cy="119" r="3.4" fill="none" stroke="#465864"/><circle cx="848" cy="119" r="1.2" fill="#465864"/>
    <text x="860" y="123" fill="#465864">tools + skills</text>
    <rect x="830" y="152" width="230" height="38" rx="9" fill="#FFFFFF" stroke="#465864" stroke-opacity="0.4"/>
    <circle cx="848" cy="171" r="3.4" fill="none" stroke="#465864"/><circle cx="848" cy="171" r="1.2" fill="#465864"/>
    <text x="860" y="175" fill="#465864">named services</text>
    <rect x="830" y="204" width="230" height="38" rx="9" fill="#FFFFFF" stroke="#465864" stroke-opacity="0.4"/>
    <circle cx="848" cy="223" r="3.4" fill="none" stroke="#465864"/><circle cx="848" cy="223" r="1.2" fill="#465864"/>
    <text x="860" y="227" fill="#465864">MCP + APIs</text>
    <rect x="830" y="256" width="230" height="44" rx="9" fill="#FFFFFF" stroke="#465864" stroke-opacity="0.4"/>
    <circle cx="848" cy="278" r="3.4" fill="none" stroke="#465864"/><circle cx="848" cy="278" r="1.2" fill="#465864"/>
    <text x="860" y="274" fill="#465864">connected accounts</text>
    <text x="860" y="288" font-size="7.5" fill="#8794A0" font-family="JetBrains Mono, ui-monospace, Menlo, monospace">PROVIDER ACCOUNTS &#8800; PLATFORM AUTH</text>
    <rect x="830" y="314" width="230" height="44" rx="9" fill="#FFFFFF" stroke="#465864" stroke-opacity="0.4"/>
    <circle cx="848" cy="336" r="3.4" fill="none" stroke="#465864"/><circle cx="848" cy="336" r="1.2" fill="#465864"/>
    <text x="860" y="332" fill="#465864">isolated code + files</text>
    <text x="860" y="346" font-size="7.5" fill="#8794A0" font-family="JetBrains Mono, ui-monospace, Menlo, monospace">NO AMBIENT NETWORK OR CREDENTIALS</text>
  </g>
  <g stroke="#B08428" stroke-width="1.1" fill="none" stroke-dasharray="5 4" stroke-opacity="0.6">
    <path d="M740 190 C778 186 792 124 821 119"/>
    <path d="M740 208 C776 204 792 174 821 171"/>
    <path d="M740 225 C776 224 792 223 821 223"/>
    <path d="M740 243 C776 246 792 274 821 278"/>
    <path d="M740 261 C778 266 792 330 821 336"/>
  </g>
  <g fill="#B08428" fill-opacity="0.8">
    <path d="M830 119l-9 -4v8z"/>
    <path d="M830 171l-9 -4v8z"/>
    <path d="M830 223l-9 -4v8z"/>
    <path d="M830 278l-9 -4v8z"/>
    <path d="M830 336l-9 -4v8z"/>
  </g>

  <!-- back to the world -->
  <path d="M550 280 V312" stroke="#B08428" stroke-width="1.1" fill="none" stroke-dasharray="5 4" stroke-opacity="0.6"/>
  <path d="M550 322l-4 -9h8z" fill="#B08428" fill-opacity="0.8"/>
  <rect x="390" y="322" width="320" height="44" rx="9" fill="#FFFFFF" stroke="#465864" stroke-opacity="0.4"/>
  <circle cx="408" cy="344" r="3.4" fill="none" stroke="#465864"/><circle cx="408" cy="344" r="1.2" fill="#465864"/>
  <text x="420" y="340" font-size="10.5" font-weight="600" fill="#465864">responses · actions · artifacts</text>
  <text x="420" y="355" font-size="8" fill="#8794A0">streamed live to widgets, APIs, and channels</text>

  <!-- the production foundation: the plinth everything stands on -->
  <path d="M550 366 V392" stroke="#465864" stroke-width="1" fill="none" stroke-dasharray="4 3" stroke-opacity="0.45"/>
  <rect x="60" y="400" width="980" height="128" rx="12" fill="url(#plinth)" stroke="#465864" stroke-opacity="0.35"/>
  <rect x="66" y="406" width="968" height="116" rx="9" fill="none" stroke="#465864" stroke-opacity="0.15"/>
  <text x="550" y="428" font-size="10" letter-spacing="0.24em" fill="#3A4A56" font-weight="700" text-anchor="middle" font-family="JetBrains Mono, ui-monospace, Menlo, monospace">THE PRODUCTION FOUNDATION</text>
  <g font-size="10" font-weight="600" fill="#3F4E59">
    <circle cx="106" cy="456" r="3" fill="none" stroke="#465864"/><text x="118" y="460">ordered event delivery</text>
    <circle cx="356" cy="456" r="3" fill="none" stroke="#465864"/><text x="368" y="460">identity + grants</text>
    <circle cx="586" cy="456" r="3" fill="none" stroke="#465864"/><text x="598" y="460">persistence</text>
    <circle cx="796" cy="456" r="3" fill="none" stroke="#465864"/><text x="808" y="460">streaming + reconnect</text>
    <circle cx="106" cy="492" r="3" fill="none" stroke="#465864"/><text x="118" y="496">isolation</text>
    <circle cx="356" cy="492" r="3" fill="none" stroke="#465864"/><text x="368" y="496">budgets + accounting</text>
    <circle cx="586" cy="492" r="3" fill="none" stroke="#465864"/><text x="598" y="496">configuration + secrets</text>
    <circle cx="796" cy="492" r="3" fill="none" stroke="#465864"/><text x="808" y="496">recovery + evidence</text>
  </g>

  <text x="550" y="568" font-size="9.5" letter-spacing="0.22em" fill="#8794A0" text-anchor="middle" font-family="JetBrains Mono, ui-monospace, Menlo, monospace">YOUR AGENT DECIDES · KDCUBE MAKES IT PERCEIVE, ACT, AND SHIP</text>
</svg>
