<svg xmlns="http://www.w3.org/2000/svg" viewBox="0 0 940 470" font-family="Inter, ui-sans-serif, system-ui, sans-serif" role="img" aria-label="KDCube topology: a user and an external agent reach your apps; apps serve and consume surfaces; the auth authority is external OIDC or a bundle; Connection Hub brokers claims; kdcube-services federates app realms over MCP."><rect x="280" y="100" width="640" height="350" rx="12" fill="#FCFDFD" stroke="#E6ECEE"/><text x="298" y="122" font-size="10.5" letter-spacing="0.08em" font-weight="700" fill="#7A99B0">KDCUBE PLATFORM</text><rect x="380" y="16" width="240" height="58" rx="10" fill="#FFFFFF" stroke="#E6ECEE"/><text x="394" y="38" font-size="12.5" font-weight="700" fill="#0D1E2C">Auth authority</text><text x="394" y="54" font-size="10.5" font-style="italic" fill="#7A99B0">external OIDC · or a bundle you deploy</text><rect x="392" y="46" width="98" height="18" rx="4" fill="#EAF0FB" stroke="#4F7BD0" stroke-opacity="0.45"/><text x="441.0" y="58.5" font-size="10" font-weight="600" fill="#3C63AE" text-anchor="middle">OIDC / Cognito</text><rect x="496" y="46" width="128" height="18" rx="4" fill="#F3EDFB" stroke="#9A6BD0" stroke-opacity="0.45"/><text x="560.0" y="58.5" font-size="10" font-weight="600" fill="#7B4FB8" text-anchor="middle">bundle session auth</text><rect x="560" y="140" width="340" height="150" rx="10" fill="#FFFFFF" stroke="#E6ECEE"/><text x="574" y="162" font-size="12.5" font-weight="700" fill="#0D1E2C">Your app(s)</text><text x="574" y="178" font-size="10.5" font-style="italic" fill="#7A99B0">one deployable unit · hot reload</text><text x="574" y="192" font-size="10" font-weight="700" fill="#7A99B0">SERVES · as_provider</text><rect x="574" y="200" width="39" height="18" rx="4" fill="#E2F7F4" stroke="#01BEB2" stroke-opacity="0.45"/><text x="593.5" y="212.5" font-size="10" font-weight="600" fill="#06968C" text-anchor="middle">chat</text><rect x="619" y="200" width="57" height="18" rx="4" fill="#E2F7F4" stroke="#01BEB2" stroke-opacity="0.45"/><text x="647.5" y="212.5" font-size="10" font-weight="600" fill="#06968C" text-anchor="middle">widgets</text><rect x="682" y="200" width="39" height="18" rx="4" fill="#E2F7F4" stroke="#01BEB2" stroke-opacity="0.45"/><text x="701.5" y="212.5" font-size="10" font-weight="600" fill="#06968C" text-anchor="middle">REST</text><rect x="727" y="200" width="33" height="18" rx="4" fill="#E2F7F4" stroke="#01BEB2" stroke-opacity="0.45"/><text x="743.5" y="212.5" font-size="10" font-weight="600" fill="#06968C" text-anchor="middle">MCP</text><rect x="766" y="200" width="45" height="18" rx="4" fill="#E2F7F4" stroke="#01BEB2" stroke-opacity="0.45"/><text x="788.5" y="212.5" font-size="10" font-weight="600" fill="#06968C" text-anchor="middle">realm</text><text x="574" y="242" font-size="10" font-weight="700" fill="#7A99B0">USES · as_consumer</text><rect x="574" y="250" width="98" height="18" rx="4" fill="#EAF0FB" stroke="#4F7BD0" stroke-opacity="0.45"/><text x="623.0" y="262.5" font-size="10" font-weight="600" fill="#3C63AE" text-anchor="middle">agents + tools</text><rect x="678" y="250" width="75" height="18" rx="4" fill="#EAF0FB" stroke="#4F7BD0" stroke-opacity="0.45"/><text x="715.5" y="262.5" font-size="10" font-weight="600" fill="#3C63AE" text-anchor="middle">namespaces</text><rect x="759" y="250" width="80" height="18" rx="4" fill="#EAF0FB" stroke="#4F7BD0" stroke-opacity="0.45"/><text x="799.0" y="262.5" font-size="10" font-weight="600" fill="#3C63AE" text-anchor="middle">MCP servers</text><rect x="310" y="320" width="270" height="110" rx="10" fill="#FFFFFF" stroke="#E6ECEE"/><text x="324" y="342" font-size="12.5" font-weight="700" fill="#0D1E2C">kdcube-services</text><text x="324" y="358" font-size="10.5" font-style="italic" fill="#7A99B0">named-services gateway over MCP</text><rect x="324" y="378" width="39" height="18" rx="4" fill="#FBF2DC" stroke="#D9982B" stroke-opacity="0.45"/><text x="343.5" y="390.5" font-size="10" font-weight="600" fill="#C4861F" text-anchor="middle">conv</text><rect x="369" y="378" width="39" height="18" rx="4" fill="#FBF2DC" stroke="#D9982B" stroke-opacity="0.45"/><text x="388.5" y="390.5" font-size="10" font-weight="600" fill="#C4861F" text-anchor="middle">mail</text><rect x="414" y="378" width="45" height="18" rx="4" fill="#FBF2DC" stroke="#D9982B" stroke-opacity="0.45"/><text x="436.5" y="390.5" font-size="10" font-weight="600" fill="#C4861F" text-anchor="middle">slack</text><rect x="465" y="378" width="39" height="18" rx="4" fill="#FBF2DC" stroke="#D9982B" stroke-opacity="0.45"/><text x="484.5" y="390.5" font-size="10" font-weight="600" fill="#C4861F" text-anchor="middle">task</text><rect x="510" y="378" width="33" height="18" rx="4" fill="#FBF2DC" stroke="#D9982B" stroke-opacity="0.45"/><text x="526.5" y="390.5" font-size="10" font-weight="600" fill="#C4861F" text-anchor="middle">mem</text><rect x="620" y="320" width="280" height="110" rx="10" fill="#FFFFFF" stroke="#E6ECEE"/><text x="634" y="342" font-size="12.5" font-weight="700" fill="#0D1E2C">Connection Hub</text><text x="634" y="358" font-size="10.5" font-style="italic" fill="#7A99B0">connected accounts · claims broker</text><rect x="634" y="378" width="57" height="18" rx="4" fill="#E8F5EF" stroke="#2FA37A" stroke-opacity="0.45"/><text x="662.5" y="390.5" font-size="10" font-weight="600" fill="#1E7C5A" text-anchor="middle">consent</text><rect x="697" y="378" width="51" height="18" rx="4" fill="#E8F5EF" stroke="#2FA37A" stroke-opacity="0.45"/><text x="722.5" y="390.5" font-size="10" font-weight="600" fill="#1E7C5A" text-anchor="middle">grants</text><rect x="754" y="378" width="116" height="18" rx="4" fill="#E8F5EF" stroke="#2FA37A" stroke-opacity="0.45"/><text x="812.0" y="390.5" font-size="10" font-weight="600" fill="#1E7C5A" text-anchor="middle">automation tokens</text><rect x="40" y="140" width="190" height="64" rx="10" fill="#FFFFFF" stroke="#E6ECEE"/><text x="54" y="162" font-size="12.5" font-weight="700" fill="#0D1E2C">User</text><text x="54" y="178" font-size="10.5" font-style="italic" fill="#7A99B0">browser · scenes &amp; widgets</text><rect x="40" y="330" width="190" height="76" rx="10" fill="#FFFFFF" stroke="#E6ECEE"/><text x="54" y="352" font-size="12.5" font-weight="700" fill="#0D1E2C">External agent</text><text x="54" y="368" font-size="10.5" font-style="italic" fill="#7A99B0">Claude · any MCP client</text><path d="M230 165 C 380 165 420 180 560 190" fill="none" stroke="#B9CBD6" stroke-width="1.5" marker-end="url(#a)"/><text x="390" y="158" font-size="10" font-style="italic" fill="#7A99B0" text-anchor="middle">chat · widgets · consent</text><path d="M230 368 C 260 368 280 372 310 372" fill="none" stroke="#B9CBD6" stroke-width="1.5" marker-end="url(#a)"/><text x="268" y="358" font-size="10" font-style="italic" fill="#7A99B0" text-anchor="middle">MCP · namespace grants</text><path d="M470 320 C 500 290 530 275 560 265" fill="none" stroke="#B9CBD6" stroke-width="1.5" marker-end="url(#a)"/><text x="488" y="282" font-size="10" font-style="italic" fill="#7A99B0" text-anchor="middle">federates app realms</text><path d="M660 320 C 680 305 700 300 720 290" fill="none" stroke="#B9CBD6" stroke-width="1.5" marker-end="url(#a)"/><text x="760" y="308" font-size="10" font-style="italic" fill="#7A99B0" text-anchor="middle">brokers claims at tool boundaries</text><path d="M500 74 L 500 100" fill="none" stroke="#B9CBD6" stroke-width="1.5" marker-end="url(#a)"/><text x="548" y="92" font-size="10" font-style="italic" fill="#7A99B0" text-anchor="middle">authenticates</text><defs><marker id="a" markerWidth="8" markerHeight="8" refX="7" refY="4" orient="auto" markerUnits="userSpaceOnUse"><path d="M1 1 L7 4 L1 7 Z" fill="#B9CBD6"/></marker></defs></svg>