<svg xmlns="http://www.w3.org/2000/svg"
     width="1190" height="260"
     viewBox="0 0 1190 260"
     shape-rendering="crispEdges">
    <!-- KDCube banner · generated by banner_to_svg.py -->
    <rect x="0" y="100" width="20" height="20" fill="#c6f3f1"/>
    <rect x="80" y="100" width="20" height="20" fill="#c6f3f1"/>
    <rect x="140" y="100" width="20" height="20" fill="#c6f3f1"/>
    <rect x="160" y="100" width="20" height="20" fill="#c6f3f1"/>
    <rect x="180" y="100" width="20" height="20" fill="#c6f3f1"/>
    <rect x="200" y="100" width="20" height="20" fill="#c6f3f1"/>
    <rect x="300" y="100" width="20" height="20" fill="#c6f3f1"/>
    <rect x="320" y="100" width="20" height="20" fill="#c6f3f1"/>
    <rect x="340" y="100" width="20" height="20" fill="#c6f3f1"/>
    <rect x="360" y="100" width="20" height="20" fill="#c6f3f1"/>
    <rect x="540" y="100" width="20" height="20" fill="#c6f3f1"/>
    <rect x="0" y="120" width="20" height="20" fill="#01beb2"/>
    <rect x="20" y="120" width="20" height="20" fill="#4372c3"/>
    <rect x="60" y="120" width="20" height="20" fill="#c6f3f1"/>
    <rect x="80" y="120" width="20" height="20" fill="#01beb2"/>
    <rect x="100" y="120" width="20" height="20" fill="#4372c3"/>
    <rect x="140" y="120" width="20" height="20" fill="#01beb2"/>
    <rect x="160" y="120" width="20" height="20" fill="#01beb2"/>
    <rect x="180" y="120" width="20" height="20" fill="#01beb2"/>
    <rect x="200" y="120" width="20" height="20" fill="#01beb2"/>
    <rect x="220" y="120" width="20" height="20" fill="#c6f3f1"/>
    <rect x="280" y="120" width="20" height="20" fill="#c6f3f1"/>
    <rect x="300" y="120" width="20" height="20" fill="#01beb2"/>
    <rect x="320" y="120" width="20" height="20" fill="#01beb2"/>
    <rect x="340" y="120" width="20" height="20" fill="#01beb2"/>
    <rect x="360" y="120" width="20" height="20" fill="#01beb2"/>
    <rect x="380" y="120" width="20" height="20" fill="#4372c3"/>
    <rect x="540" y="120" width="20" height="20" fill="#01beb2"/>
    <rect x="560" y="120" width="20" height="20" fill="#4372c3"/>
    <rect x="0" y="140" width="20" height="20" fill="#01beb2"/>
    <rect x="20" y="140" width="20" height="20" fill="#4372c3"/>
    <rect x="40" y="140" width="20" height="20" fill="#c6f3f1"/>
    <rect x="60" y="140" width="20" height="20" fill="#01beb2"/>
    <rect x="80" y="140" width="20" height="20" fill="#4372c3"/>
    <rect x="140" y="140" width="20" height="20" fill="#01beb2"/>
    <rect x="160" y="140" width="20" height="20" fill="#4372c3"/>
    <rect x="220" y="140" width="20" height="20" fill="#01beb2"/>
    <rect x="240" y="140" width="20" height="20" fill="#4372c3"/>
    <rect x="280" y="140" width="20" height="20" fill="#01beb2"/>
    <rect x="300" y="140" width="20" height="20" fill="#4372c3"/>
    <rect x="420" y="140" width="20" height="20" fill="#c6f3f1"/>
    <rect x="480" y="140" width="20" height="20" fill="#c6f3f1"/>
    <rect x="540" y="140" width="20" height="20" fill="#01beb2"/>
    <rect x="560" y="140" width="20" height="20" fill="#c6f3f1"/>
    <rect x="580" y="140" width="20" height="20" fill="#c6f3f1"/>
    <rect x="680" y="140" width="20" height="20" fill="#c6f3f1"/>
    <rect x="700" y="140" width="20" height="20" fill="#c6f3f1"/>
    <rect x="720" y="140" width="20" height="20" fill="#c6f3f1"/>
    <rect x="0" y="160" width="20" height="20" fill="#01beb2"/>
    <rect x="20" y="160" width="20" height="20" fill="#c6f3f1"/>
    <rect x="40" y="160" width="20" height="20" fill="#01beb2"/>
    <rect x="60" y="160" width="20" height="20" fill="#4372c3"/>
    <rect x="140" y="160" width="20" height="20" fill="#01beb2"/>
    <rect x="160" y="160" width="20" height="20" fill="#4372c3"/>
    <rect x="220" y="160" width="20" height="20" fill="#01beb2"/>
    <rect x="240" y="160" width="20" height="20" fill="#4372c3"/>
    <rect x="280" y="160" width="20" height="20" fill="#01beb2"/>
    <rect x="300" y="160" width="20" height="20" fill="#4372c3"/>
    <rect x="420" y="160" width="20" height="20" fill="#01beb2"/>
    <rect x="440" y="160" width="20" height="20" fill="#4372c3"/>
    <rect x="480" y="160" width="20" height="20" fill="#01beb2"/>
    <rect x="500" y="160" width="20" height="20" fill="#4372c3"/>
    <rect x="540" y="160" width="20" height="20" fill="#01beb2"/>
    <rect x="560" y="160" width="20" height="20" fill="#01beb2"/>
    <rect x="580" y="160" width="20" height="20" fill="#01beb2"/>
    <rect x="600" y="160" width="20" height="20" fill="#c6f3f1"/>
    <rect x="660" y="160" width="20" height="20" fill="#c6f3f1"/>
    <rect x="680" y="160" width="20" height="20" fill="#01beb2"/>
    <rect x="700" y="160" width="20" height="20" fill="#01beb2"/>
    <rect x="720" y="160" width="20" height="20" fill="#01beb2"/>
    <rect x="740" y="160" width="20" height="20" fill="#c6f3f1"/>
    <rect x="0" y="180" width="20" height="20" fill="#01beb2"/>
    <rect x="20" y="180" width="20" height="20" fill="#01beb2"/>
    <rect x="40" y="180" width="20" height="20" fill="#c6f3f1"/>
    <rect x="140" y="180" width="20" height="20" fill="#01beb2"/>
    <rect x="160" y="180" width="20" height="20" fill="#4372c3"/>
    <rect x="220" y="180" width="20" height="20" fill="#01beb2"/>
    <rect x="240" y="180" width="20" height="20" fill="#4372c3"/>
    <rect x="280" y="180" width="20" height="20" fill="#01beb2"/>
    <rect x="300" y="180" width="20" height="20" fill="#4372c3"/>
    <rect x="420" y="180" width="20" height="20" fill="#01beb2"/>
    <rect x="440" y="180" width="20" height="20" fill="#4372c3"/>
    <rect x="480" y="180" width="20" height="20" fill="#01beb2"/>
    <rect x="500" y="180" width="20" height="20" fill="#4372c3"/>
    <rect x="540" y="180" width="20" height="20" fill="#01beb2"/>
    <rect x="560" y="180" width="20" height="20" fill="#4372c3"/>
    <rect x="600" y="180" width="20" height="20" fill="#01beb2"/>
    <rect x="620" y="180" width="20" height="20" fill="#4372c3"/>
    <rect x="660" y="180" width="20" height="20" fill="#01beb2"/>
    <rect x="680" y="180" width="20" height="20" fill="#c6f3f1"/>
    <rect x="700" y="180" width="20" height="20" fill="#c6f3f1"/>
    <rect x="720" y="180" width="20" height="20" fill="#c6f3f1"/>
    <rect x="740" y="180" width="20" height="20" fill="#01beb2"/>
    <rect x="760" y="180" width="20" height="20" fill="#4372c3"/>
    <rect x="0" y="200" width="20" height="20" fill="#01beb2"/>
    <rect x="20" y="200" width="20" height="20" fill="#4372c3"/>
    <rect x="40" y="200" width="20" height="20" fill="#01beb2"/>
    <rect x="60" y="200" width="20" height="20" fill="#c6f3f1"/>
    <rect x="140" y="200" width="20" height="20" fill="#01beb2"/>
    <rect x="160" y="200" width="20" height="20" fill="#4372c3"/>
    <rect x="220" y="200" width="20" height="20" fill="#01beb2"/>
    <rect x="240" y="200" width="20" height="20" fill="#4372c3"/>
    <rect x="280" y="200" width="20" height="20" fill="#01beb2"/>
    <rect x="300" y="200" width="20" height="20" fill="#4372c3"/>
    <rect x="420" y="200" width="20" height="20" fill="#01beb2"/>
    <rect x="440" y="200" width="20" height="20" fill="#4372c3"/>
    <rect x="480" y="200" width="20" height="20" fill="#01beb2"/>
    <rect x="500" y="200" width="20" height="20" fill="#4372c3"/>
    <rect x="540" y="200" width="20" height="20" fill="#01beb2"/>
    <rect x="560" y="200" width="20" height="20" fill="#4372c3"/>
    <rect x="600" y="200" width="20" height="20" fill="#01beb2"/>
    <rect x="620" y="200" width="20" height="20" fill="#4372c3"/>
    <rect x="660" y="200" width="20" height="20" fill="#01beb2"/>
    <rect x="680" y="200" width="20" height="20" fill="#01beb2"/>
    <rect x="700" y="200" width="20" height="20" fill="#01beb2"/>
    <rect x="720" y="200" width="20" height="20" fill="#01beb2"/>
    <rect x="740" y="200" width="20" height="20" fill="#4372c3"/>
    <rect x="0" y="220" width="20" height="20" fill="#01beb2"/>
    <rect x="20" y="220" width="20" height="20" fill="#4372c3"/>
    <rect x="60" y="220" width="20" height="20" fill="#01beb2"/>
    <rect x="80" y="220" width="20" height="20" fill="#c6f3f1"/>
    <rect x="140" y="220" width="20" height="20" fill="#01beb2"/>
    <rect x="160" y="220" width="20" height="20" fill="#c6f3f1"/>
    <rect x="180" y="220" width="20" height="20" fill="#c6f3f1"/>
    <rect x="200" y="220" width="20" height="20" fill="#c6f3f1"/>
    <rect x="220" y="220" width="20" height="20" fill="#01beb2"/>
    <rect x="240" y="220" width="20" height="20" fill="#4372c3"/>
    <rect x="280" y="220" width="20" height="20" fill="#01beb2"/>
    <rect x="300" y="220" width="20" height="20" fill="#c6f3f1"/>
    <rect x="320" y="220" width="20" height="20" fill="#c6f3f1"/>
    <rect x="340" y="220" width="20" height="20" fill="#c6f3f1"/>
    <rect x="360" y="220" width="20" height="20" fill="#c6f3f1"/>
    <rect x="420" y="220" width="20" height="20" fill="#01beb2"/>
    <rect x="440" y="220" width="20" height="20" fill="#c6f3f1"/>
    <rect x="460" y="220" width="20" height="20" fill="#c6f3f1"/>
    <rect x="480" y="220" width="20" height="20" fill="#01beb2"/>
    <rect x="500" y="220" width="20" height="20" fill="#4372c3"/>
    <rect x="540" y="220" width="20" height="20" fill="#01beb2"/>
    <rect x="560" y="220" width="20" height="20" fill="#c6f3f1"/>
    <rect x="580" y="220" width="20" height="20" fill="#c6f3f1"/>
    <rect x="600" y="220" width="20" height="20" fill="#01beb2"/>
    <rect x="620" y="220" width="20" height="20" fill="#4372c3"/>
    <rect x="660" y="220" width="20" height="20" fill="#01beb2"/>
    <rect x="680" y="220" width="20" height="20" fill="#c6f3f1"/>
    <rect x="700" y="220" width="20" height="20" fill="#c6f3f1"/>
    <rect x="720" y="220" width="20" height="20" fill="#c6f3f1"/>
    <rect x="0" y="240" width="20" height="20" fill="#01beb2"/>
    <rect x="20" y="240" width="20" height="20" fill="#4372c3"/>
    <rect x="80" y="240" width="20" height="20" fill="#01beb2"/>
    <rect x="100" y="240" width="20" height="20" fill="#4372c3"/>
    <rect x="140" y="240" width="20" height="20" fill="#01beb2"/>
    <rect x="160" y="240" width="20" height="20" fill="#01beb2"/>
    <rect x="180" y="240" width="20" height="20" fill="#01beb2"/>
    <rect x="200" y="240" width="20" height="20" fill="#01beb2"/>
    <rect x="220" y="240" width="20" height="20" fill="#4372c3"/>
    <rect x="300" y="240" width="20" height="20" fill="#01beb2"/>
    <rect x="320" y="240" width="20" height="20" fill="#01beb2"/>
    <rect x="340" y="240" width="20" height="20" fill="#01beb2"/>
    <rect x="360" y="240" width="20" height="20" fill="#01beb2"/>
    <rect x="380" y="240" width="20" height="20" fill="#4372c3"/>
    <rect x="440" y="240" width="20" height="20" fill="#01beb2"/>
    <rect x="460" y="240" width="20" height="20" fill="#01beb2"/>
    <rect x="480" y="240" width="20" height="20" fill="#01beb2"/>
    <rect x="500" y="240" width="20" height="20" fill="#4372c3"/>
    <rect x="540" y="240" width="20" height="20" fill="#01beb2"/>
    <rect x="560" y="240" width="20" height="20" fill="#01beb2"/>
    <rect x="580" y="240" width="20" height="20" fill="#01beb2"/>
    <rect x="600" y="240" width="20" height="20" fill="#4372c3"/>
    <rect x="680" y="240" width="20" height="20" fill="#01beb2"/>
    <rect x="700" y="240" width="20" height="20" fill="#01beb2"/>
    <rect x="720" y="240" width="20" height="20" fill="#01beb2"/>
    <rect x="740" y="240" width="20" height="20" fill="#4372c3"/>
    <rect x="860" y="0" width="20" height="20" fill="#c6f3f1"/>
    <rect x="1020" y="0" width="20" height="20" fill="#6b63fe"/>
    <rect x="860" y="20" width="20" height="20" fill="#4372c3"/>
    <rect x="1020" y="20" width="20" height="20" fill="#6b63fe"/>
    <rect x="860" y="40" width="20" height="20" fill="#4372c3"/>
    <rect x="1020" y="40" width="20" height="20" fill="#6b63fe"/>
    <rect x="820" y="60" width="20" height="20" fill="#c6f3f1"/>
    <rect x="840" y="60" width="20" height="20" fill="#c6f3f1"/>
    <rect x="860" y="60" width="20" height="20" fill="#c6f3f1"/>
    <rect x="880" y="60" width="20" height="20" fill="#c6f3f1"/>
    <rect x="900" y="60" width="20" height="20" fill="#c6f3f1"/>
    <rect x="920" y="60" width="20" height="20" fill="#c6f3f1"/>
    <rect x="940" y="60" width="20" height="20" fill="#c6f3f1"/>
    <rect x="960" y="60" width="20" height="20" fill="#c6f3f1"/>
    <rect x="980" y="60" width="20" height="20" fill="#c6f3f1"/>
    <rect x="1000" y="60" width="20" height="20" fill="#c6f3f1"/>
    <rect x="1020" y="60" width="20" height="20" fill="#c6f3f1"/>
    <rect x="1040" y="60" width="20" height="20" fill="#c6f3f1"/>
    <rect x="820" y="80" width="20" height="20" fill="#c6f3f1"/>
    <rect x="840" y="80" width="20" height="20" fill="#c6f3f1"/>
    <rect x="860" y="80" width="20" height="20" fill="#c6f3f1"/>
    <rect x="880" y="80" width="20" height="20" fill="#c6f3f1"/>
    <rect x="900" y="80" width="20" height="20" fill="#c6f3f1"/>
    <rect x="920" y="80" width="20" height="20" fill="#c6f3f1"/>
    <rect x="940" y="80" width="20" height="20" fill="#c6f3f1"/>
    <rect x="960" y="80" width="20" height="20" fill="#c6f3f1"/>
    <rect x="980" y="80" width="20" height="20" fill="#c6f3f1"/>
    <rect x="1000" y="80" width="20" height="20" fill="#c6f3f1"/>
    <rect x="1020" y="80" width="20" height="20" fill="#c6f3f1"/>
    <rect x="1040" y="80" width="20" height="20" fill="#c6f3f1"/>
    <rect x="820" y="100" width="20" height="20" fill="#01beb2"/>
    <rect x="840" y="100" width="20" height="20" fill="#01beb2"/>
    <rect x="860" y="100" width="20" height="20" fill="#01beb2"/>
    <rect x="880" y="100" width="20" height="20" fill="#01beb2"/>
    <rect x="900" y="100" width="20" height="20" fill="#01beb2"/>
    <rect x="920" y="100" width="20" height="20" fill="#01beb2"/>
    <rect x="940" y="100" width="20" height="20" fill="#01beb2"/>
    <rect x="960" y="100" width="20" height="20" fill="#01beb2"/>
    <rect x="980" y="100" width="20" height="20" fill="#01beb2"/>
    <rect x="1000" y="100" width="20" height="20" fill="#01beb2"/>
    <rect x="1020" y="100" width="20" height="20" fill="#01beb2"/>
    <rect x="1040" y="100" width="20" height="20" fill="#01beb2"/>
    <rect x="820" y="120" width="20" height="20" fill="#01beb2"/>
    <rect x="840" y="120" width="20" height="20" fill="#ffffff"/>
    <rect x="860" y="120" width="20" height="20" fill="#ffffff"/>
    <rect x="880" y="120" width="20" height="20" fill="#ffffff"/>
    <rect x="900" y="120" width="20" height="20" fill="#01beb2"/>
    <rect x="920" y="120" width="20" height="20" fill="#01beb2"/>
    <rect x="940" y="120" width="20" height="20" fill="#01beb2"/>
    <rect x="960" y="120" width="20" height="20" fill="#ffffff"/>
    <rect x="980" y="120" width="20" height="20" fill="#ffffff"/>
    <rect x="1000" y="120" width="20" height="20" fill="#ffffff"/>
    <rect x="1020" y="120" width="20" height="20" fill="#01beb2"/>
    <rect x="1040" y="120" width="20" height="20" fill="#01beb2"/>
    <rect x="780" y="140" width="20" height="20" fill="#4372c3"/>
    <rect x="800" y="140" width="20" height="20" fill="#4372c3"/>
    <rect x="820" y="140" width="20" height="20" fill="#01beb2"/>
    <rect x="840" y="140" width="20" height="20" fill="#ffffff"/>
    <rect x="860" y="140" width="20" height="20" fill="#06101e"/>
    <rect x="880" y="140" width="20" height="20" fill="#ffffff"/>
    <rect x="900" y="140" width="20" height="20" fill="#01beb2"/>
    <rect x="920" y="140" width="20" height="20" fill="#01beb2"/>
    <rect x="940" y="140" width="20" height="20" fill="#01beb2"/>
    <rect x="960" y="140" width="20" height="20" fill="#ffffff"/>
    <rect x="980" y="140" width="20" height="20" fill="#06101e"/>
    <rect x="1000" y="140" width="20" height="20" fill="#ffffff"/>
    <rect x="1020" y="140" width="20" height="20" fill="#01beb2"/>
    <rect x="1040" y="140" width="20" height="20" fill="#01beb2"/>
    <rect x="1060" y="140" width="20" height="20" fill="#4372c3"/>
    <rect x="1080" y="140" width="20" height="20" fill="#4372c3"/>
    <rect x="780" y="160" width="20" height="20" fill="#4372c3"/>
    <rect x="800" y="160" width="20" height="20" fill="#4372c3"/>
    <rect x="820" y="160" width="20" height="20" fill="#01beb2"/>
    <rect x="840" y="160" width="20" height="20" fill="#ffffff"/>
    <rect x="860" y="160" width="20" height="20" fill="#ffffff"/>
    <rect x="880" y="160" width="20" height="20" fill="#ffffff"/>
    <rect x="900" y="160" width="20" height="20" fill="#01beb2"/>
    <rect x="920" y="160" width="20" height="20" fill="#01beb2"/>
    <rect x="940" y="160" width="20" height="20" fill="#01beb2"/>
    <rect x="960" y="160" width="20" height="20" fill="#ffffff"/>
    <rect x="980" y="160" width="20" height="20" fill="#ffffff"/>
    <rect x="1000" y="160" width="20" height="20" fill="#ffffff"/>
    <rect x="1020" y="160" width="20" height="20" fill="#01beb2"/>
    <rect x="1040" y="160" width="20" height="20" fill="#01beb2"/>
    <rect x="1060" y="160" width="20" height="20" fill="#4372c3"/>
    <rect x="1080" y="160" width="20" height="20" fill="#4372c3"/>
    <rect x="820" y="180" width="20" height="20" fill="#01beb2"/>
    <rect x="840" y="180" width="20" height="20" fill="#01beb2"/>
    <rect x="860" y="180" width="20" height="20" fill="#01beb2"/>
    <rect x="880" y="180" width="20" height="20" fill="#01beb2"/>
    <rect x="900" y="180" width="20" height="20" fill="#01beb2"/>
    <rect x="920" y="180" width="20" height="20" fill="#01beb2"/>
    <rect x="940" y="180" width="20" height="20" fill="#01beb2"/>
    <rect x="960" y="180" width="20" height="20" fill="#01beb2"/>
    <rect x="980" y="180" width="20" height="20" fill="#01beb2"/>
    <rect x="1000" y="180" width="20" height="20" fill="#01beb2"/>
    <rect x="1020" y="180" width="20" height="20" fill="#01beb2"/>
    <rect x="1040" y="180" width="20" height="20" fill="#01beb2"/>
    <rect x="820" y="200" width="20" height="20" fill="#01beb2"/>
    <rect x="840" y="200" width="20" height="20" fill="#01beb2"/>
    <rect x="860" y="200" width="20" height="20" fill="#01beb2"/>
    <rect x="880" y="200" width="20" height="20" fill="#06101e"/>
    <rect x="900" y="200" width="20" height="20" fill="#06101e"/>
    <rect x="920" y="200" width="20" height="20" fill="#06101e"/>
    <rect x="940" y="200" width="20" height="20" fill="#06101e"/>
    <rect x="960" y="200" width="20" height="20" fill="#06101e"/>
    <rect x="980" y="200" width="20" height="20" fill="#01beb2"/>
    <rect x="1000" y="200" width="20" height="20" fill="#01beb2"/>
    <rect x="1020" y="200" width="20" height="20" fill="#01beb2"/>
    <rect x="1040" y="200" width="20" height="20" fill="#01beb2"/>
    <rect x="820" y="220" width="20" height="20" fill="#01beb2"/>
    <rect x="840" y="220" width="20" height="20" fill="#01beb2"/>
    <rect x="860" y="220" width="20" height="20" fill="#01beb2"/>
    <rect x="880" y="220" width="20" height="20" fill="#01beb2"/>
    <rect x="900" y="220" width="20" height="20" fill="#01beb2"/>
    <rect x="920" y="220" width="20" height="20" fill="#01beb2"/>
    <rect x="940" y="220" width="20" height="20" fill="#01beb2"/>
    <rect x="960" y="220" width="20" height="20" fill="#01beb2"/>
    <rect x="980" y="220" width="20" height="20" fill="#01beb2"/>
    <rect x="1000" y="220" width="20" height="20" fill="#01beb2"/>
    <rect x="1020" y="220" width="20" height="20" fill="#01beb2"/>
    <rect x="1040" y="220" width="20" height="20" fill="#01beb2"/>
    <rect x="820" y="240" width="20" height="20" fill="#4372c3"/>
    <rect x="840" y="240" width="20" height="20" fill="#4372c3"/>
    <rect x="860" y="240" width="20" height="20" fill="#4372c3"/>
    <rect x="880" y="240" width="20" height="20" fill="#4372c3"/>
    <rect x="900" y="240" width="20" height="20" fill="#4372c3"/>
    <rect x="920" y="240" width="20" height="20" fill="#4372c3"/>
    <rect x="940" y="240" width="20" height="20" fill="#4372c3"/>
    <rect x="960" y="240" width="20" height="20" fill="#4372c3"/>
    <rect x="980" y="240" width="20" height="20" fill="#4372c3"/>
    <rect x="1000" y="240" width="20" height="20" fill="#4372c3"/>
    <rect x="1020" y="240" width="20" height="20" fill="#4372c3"/>
    <rect x="1040" y="240" width="20" height="20" fill="#4372c3"/>
    <rect x="1120" y="120" width="10" height="10" fill="#c6f3f1"/>
    <rect x="1120" y="130" width="10" height="10" fill="#c6f3f1"/>
    <rect x="1120" y="140" width="10" height="10" fill="#4372c3"/>
    <rect x="1120" y="150" width="10" height="10" fill="#4372c3"/>
    <rect x="1170" y="140" width="10" height="10" fill="#6b63fe"/>
    <rect x="1170" y="150" width="10" height="10" fill="#6b63fe"/>
    <rect x="1110" y="160" width="10" height="10" fill="#c6f3f1"/>
    <rect x="1110" y="170" width="10" height="10" fill="#c6f3f1"/>
    <rect x="1120" y="160" width="10" height="10" fill="#c6f3f1"/>
    <rect x="1120" y="170" width="10" height="10" fill="#c6f3f1"/>
    <rect x="1130" y="160" width="10" height="10" fill="#c6f3f1"/>
    <rect x="1130" y="170" width="10" height="10" fill="#c6f3f1"/>
    <rect x="1140" y="160" width="10" height="10" fill="#c6f3f1"/>
    <rect x="1140" y="170" width="10" height="10" fill="#c6f3f1"/>
    <rect x="1150" y="160" width="10" height="10" fill="#c6f3f1"/>
    <rect x="1150" y="170" width="10" height="10" fill="#c6f3f1"/>
    <rect x="1160" y="160" width="10" height="10" fill="#c6f3f1"/>
    <rect x="1160" y="170" width="10" height="10" fill="#c6f3f1"/>
    <rect x="1170" y="160" width="10" height="10" fill="#c6f3f1"/>
    <rect x="1170" y="170" width="10" height="10" fill="#c6f3f1"/>
    <rect x="1180" y="160" width="10" height="10" fill="#c6f3f1"/>
    <rect x="1180" y="170" width="10" height="10" fill="#c6f3f1"/>
    <rect x="1110" y="180" width="10" height="10" fill="#01beb2"/>
    <rect x="1110" y="190" width="10" height="10" fill="#01beb2"/>
    <rect x="1120" y="180" width="10" height="10" fill="#ffffff"/>
    <rect x="1120" y="190" width="10" height="10" fill="#06101e"/>
    <rect x="1130" y="180" width="10" height="10" fill="#ffffff"/>
    <rect x="1130" y="190" width="10" height="10" fill="#06101e"/>
    <rect x="1140" y="180" width="10" height="10" fill="#01beb2"/>
    <rect x="1140" y="190" width="10" height="10" fill="#01beb2"/>
    <rect x="1150" y="180" width="10" height="10" fill="#01beb2"/>
    <rect x="1150" y="190" width="10" height="10" fill="#01beb2"/>
    <rect x="1160" y="180" width="10" height="10" fill="#ffffff"/>
    <rect x="1160" y="190" width="10" height="10" fill="#06101e"/>
    <rect x="1170" y="180" width="10" height="10" fill="#ffffff"/>
    <rect x="1170" y="190" width="10" height="10" fill="#06101e"/>
    <rect x="1180" y="180" width="10" height="10" fill="#01beb2"/>
    <rect x="1180" y="190" width="10" height="10" fill="#01beb2"/>
    <rect x="1110" y="200" width="10" height="10" fill="#01beb2"/>
    <rect x="1110" y="210" width="10" height="10" fill="#01beb2"/>
    <rect x="1120" y="200" width="10" height="10" fill="#01beb2"/>
    <rect x="1120" y="210" width="10" height="10" fill="#01beb2"/>
    <rect x="1130" y="200" width="10" height="10" fill="#01beb2"/>
    <rect x="1130" y="210" width="10" height="10" fill="#01beb2"/>
    <rect x="1140" y="200" width="10" height="10" fill="#06101e"/>
    <rect x="1140" y="210" width="10" height="10" fill="#01beb2"/>
    <rect x="1150" y="200" width="10" height="10" fill="#06101e"/>
    <rect x="1150" y="210" width="10" height="10" fill="#01beb2"/>
    <rect x="1160" y="200" width="10" height="10" fill="#01beb2"/>
    <rect x="1160" y="210" width="10" height="10" fill="#01beb2"/>
    <rect x="1170" y="200" width="10" height="10" fill="#01beb2"/>
    <rect x="1170" y="210" width="10" height="10" fill="#01beb2"/>
    <rect x="1180" y="200" width="10" height="10" fill="#01beb2"/>
    <rect x="1180" y="210" width="10" height="10" fill="#01beb2"/>
    <rect x="1110" y="220" width="10" height="10" fill="#01beb2"/>
    <rect x="1110" y="230" width="10" height="10" fill="#01beb2"/>
    <rect x="1120" y="220" width="10" height="10" fill="#01beb2"/>
    <rect x="1120" y="230" width="10" height="10" fill="#01beb2"/>
    <rect x="1130" y="220" width="10" height="10" fill="#01beb2"/>
    <rect x="1130" y="230" width="10" height="10" fill="#01beb2"/>
    <rect x="1140" y="220" width="10" height="10" fill="#01beb2"/>
    <rect x="1140" y="230" width="10" height="10" fill="#01beb2"/>
    <rect x="1150" y="220" width="10" height="10" fill="#01beb2"/>
    <rect x="1150" y="230" width="10" height="10" fill="#01beb2"/>
    <rect x="1160" y="220" width="10" height="10" fill="#01beb2"/>
    <rect x="1160" y="230" width="10" height="10" fill="#01beb2"/>
    <rect x="1170" y="220" width="10" height="10" fill="#01beb2"/>
    <rect x="1170" y="230" width="10" height="10" fill="#01beb2"/>
    <rect x="1180" y="220" width="10" height="10" fill="#01beb2"/>
    <rect x="1180" y="230" width="10" height="10" fill="#01beb2"/>
    <rect x="1120" y="240" width="10" height="10" fill="#4372c3"/>
    <rect x="1120" y="250" width="10" height="10" fill="#4372c3"/>
    <rect x="1170" y="240" width="10" height="10" fill="#4372c3"/>
    <rect x="1170" y="250" width="10" height="10" fill="#4372c3"/>
</svg>